<?xml version="1.0" standalone="no"?>
<!DOCTYPE svg PUBLIC "-//W3C//DTD SVG 20010904//EN"
 "http://www.w3.org/TR/2001/REC-SVG-20010904/DTD/svg10.dtd">
<svg version="1.0" xmlns="http://www.w3.org/2000/svg"
 width="828.000000pt" height="828.000000pt" viewBox="0 0 828.000000 828.000000"
 preserveAspectRatio="xMidYMid meet">
<metadata>
Created by potrace 1.16, written by Peter Selinger 2001-2019
</metadata>
<g transform="translate(0.000000,828.000000) scale(0.100000,-0.100000)"
fill="#000000" stroke="none">
<path d="M1660 4140 l0 -2480 2480 0 2480 0 2 842 c2 464 2 1580 0 2481 l-2
1637 -2480 0 -2480 0 0 -2480z m1570 1580 l0 -750 -710 0 -710 0 0 743 c0 409
3 747 7 750 3 4 323 7 710 7 l703 0 0 -750z m1605 728 c3 -13 4 -349 3 -748
l-3 -725 -742 -3 -743 -2 0 743 c0 409 3 747 7 750 3 4 336 7 739 7 l734 0 5
-22z m1625 12 c0 -5 0 -338 0 -740 0 -401 0 -735 0 -740 0 -7 -253 -9 -752 -8
l-753 3 -3 735 c-1 404 0 741 3 748 6 16 1505 18 1505 2z m-3232 -2342 l-3
-733 -685 -3 c-377 -1 -695 0 -707 3 l-23 5 0 724 c0 397 3 726 7 729 3 4 323
7 710 7 l703 0 -2 -732z m1606 716 c8 -20 8 -1417 0 -1438 -5 -14 -84 -16
-731 -16 -527 0 -729 3 -739 11 -12 10 -14 134 -14 729 0 394 3 720 7 723 3 4
336 7 739 7 658 0 732 -2 738 -16z m1626 4 c4 -161 -1 -1441 -5 -1448 -10 -16
-1477 -14 -1493 2 -9 9 -12 185 -12 728 0 394 3 720 7 723 3 4 343 7 755 7
592 0 748 -3 748 -12z m-3235 -2298 l0 -722 -695 1 c-382 1 -701 1 -707 1 -10
0 -13 151 -13 720 l0 720 698 2 c383 2 702 3 707 2 7 0 10 -249 10 -724z
m1613 6 c1 -391 -2 -714 -7 -719 -9 -9 -1457 -11 -1472 -2 -5 4 -9 294 -9 721
l0 714 743 -2 742 -3 3 -709z m1625 -2 c-1 -394 -4 -718 -7 -721 -7 -7 -1486
-4 -1497 3 -10 6 -13 1417 -2 1427 3 4 344 7 757 7 l751 0 -2 -716z"/>
<path d="M2242 5708 l3 -473 200 0 c252 0 315 14 385 84 51 52 70 100 70 181
0 83 -19 129 -73 183 l-48 47 34 40 c87 102 70 288 -32 356 -68 44 -128 54
-344 54 l-197 0 2 -472z m445 334 c50 -28 69 -125 39 -197 -24 -56 -59 -68
-221 -69 l-140 -1 -3 139 c-1 78 1 142 7 145 17 11 295 -4 318 -17z m20 -405
c44 -23 63 -64 63 -135 0 -76 -28 -121 -85 -138 -22 -7 -103 -13 -182 -13
l-143 -1 0 156 0 156 158 -4 c124 -3 164 -7 189 -21z"/>
<path d="M3865 6168 c-3 -7 -4 -220 -3 -473 l3 -460 270 0 270 0 0 55 0 55
-212 3 -213 2 -2 413 -3 412 -53 3 c-36 2 -54 -1 -57 -10z"/>
<path d="M5514 6181 c-179 -46 -302 -235 -304 -465 -1 -220 86 -384 245 -461
56 -28 68 -29 185 -30 121 0 127 1 191 32 137 67 215 186 240 366 33 238 -64
454 -241 535 -47 21 -72 26 -170 28 -63 2 -129 0 -146 -5z m234 -113 c159 -40
241 -286 175 -529 -33 -125 -128 -201 -260 -208 -104 -5 -157 13 -219 74 -64
63 -93 136 -101 255 -20 316 138 475 405 408z"/>
<path d="M2394 4577 c-73 -28 -107 -51 -161 -110 -87 -94 -118 -194 -111 -363
3 -93 8 -117 31 -166 52 -108 192 -208 291 -208 34 0 69 -22 279 -175 l109
-78 54 26 c30 15 54 33 54 41 0 7 -67 54 -150 102 -82 49 -150 92 -150 95 0 3
25 16 56 29 106 43 198 161 229 291 51 220 -25 417 -195 505 -49 26 -66 29
-165 31 -95 3 -118 0 -171 -20z m271 -95 c149 -76 198 -317 104 -509 -51 -106
-138 -156 -269 -155 -82 0 -133 23 -184 83 -60 71 -79 136 -73 259 5 122 16
161 60 227 33 49 116 108 166 117 57 10 156 -1 196 -22z"/>
<path d="M3727 4584 c-11 -11 -8 -633 3 -682 25 -109 90 -196 178 -239 52 -26
66 -28 172 -28 105 0 119 2 166 27 66 35 128 105 154 176 33 88 41 188 38 477
l-3 270 -55 0 -55 0 -6 -320 c-6 -356 -10 -378 -75 -453 -46 -54 -104 -76
-188 -70 -88 5 -140 40 -181 123 l-30 60 -5 330 -5 330 -50 3 c-28 2 -54 0
-58 -4z"/>
<path d="M5357 4583 c-4 -3 -7 -217 -7 -475 l0 -468 280 0 281 0 -3 58 -3 57
-217 3 -218 2 0 155 0 155 205 0 205 0 0 50 0 50 -202 2 -203 3 -3 147 -3 148
218 2 218 3 0 55 0 55 -271 3 c-149 1 -273 -1 -277 -5z"/>
<path d="M2351 3060 c-6 -3 -16 -55 -23 -115 l-13 -110 -85 -5 -85 -5 -3 -47
-3 -48 68 0 c37 0 73 -4 80 -8 9 -6 8 -35 -3 -126 -8 -65 -17 -123 -20 -127
-3 -5 -43 -9 -89 -9 -91 0 -95 -3 -95 -66 l0 -34 73 0 c102 0 103 -1 89 -102
-20 -139 -20 -138 37 -138 32 0 51 5 54 13 3 8 11 58 17 113 7 54 18 102 24
106 15 11 248 10 265 -1 11 -7 11 -21 2 -77 -6 -38 -12 -87 -13 -109 l-3 -40
52 -3 c59 -3 54 -13 73 138 7 46 13 87 16 91 2 3 38 7 81 8 42 1 78 3 79 4 1
1 4 22 6 47 l3 45 -77 3 c-78 3 -78 3 -78 30 1 47 26 218 34 230 5 8 37 12 90
12 l83 0 7 38 c10 64 13 62 -78 62 -47 0 -87 3 -89 8 -2 4 2 54 10 111 7 57
11 106 8 109 -9 9 -80 12 -93 4 -8 -5 -19 -51 -26 -109 -7 -55 -16 -105 -20
-112 -5 -7 -52 -11 -142 -11 l-134 0 0 28 c0 15 5 65 12 110 9 70 9 85 -3 92
-16 10 -72 10 -88 0z m335 -345 c6 -15 -12 -203 -22 -237 -5 -16 -20 -18 -139
-18 -74 0 -136 4 -139 9 -6 9 21 237 29 252 4 5 65 9 136 9 106 0 131 -3 135
-15z"/>
<path d="M3907 3063 c-3 -5 -15 -89 -26 -188 -12 -99 -26 -208 -30 -242 l-8
-63 44 -16 44 -17 61 32 c94 48 207 43 267 -12 81 -75 77 -218 -8 -290 -45
-37 -96 -50 -184 -46 -65 4 -87 10 -158 46 -45 23 -86 40 -90 37 -5 -3 -9 -27
-9 -54 0 -57 18 -76 108 -112 48 -19 76 -22 182 -23 116 0 128 2 175 27 115
60 171 162 163 293 -7 111 -54 188 -148 243 -41 24 -54 27 -145 27 -77 0 -108
-5 -133 -19 -19 -9 -36 -15 -40 -12 -5 6 13 201 24 254 4 22 5 22 192 22 133
0 192 4 200 12 7 7 12 31 12 54 0 35 -4 43 -22 48 -33 8 -466 7 -471 -1z"/>
<path d="M5423 3058 c-5 -7 -17 -80 -27 -163 -9 -82 -22 -185 -28 -227 -5 -43
-8 -84 -5 -92 3 -8 24 -20 45 -27 37 -11 45 -9 103 20 50 25 75 31 126 31 70
0 104 -13 145 -57 68 -72 65 -194 -8 -266 -42 -42 -87 -57 -170 -57 -80 0
-156 23 -219 65 -20 14 -40 25 -45 25 -6 0 -10 -26 -10 -59 0 -51 3 -61 25
-75 81 -53 226 -80 336 -61 147 25 241 115 264 252 13 83 -25 202 -86 262 -77
77 -207 102 -324 63 -33 -11 -62 -19 -64 -16 -3 2 1 39 7 82 6 42 14 103 18
134 l6 58 197 2 196 3 3 49 c2 32 -1 52 -10 57 -22 15 -464 11 -475 -3z"/>
</g>
</svg>
